<svg width="1200" height="630" viewBox="0 0 1200 630" fill="none" xmlns="http://www.w3.org/2000/svg" role="img" aria-labelledby="title desc">
  <title id="title">ellmos ControlCenter MCP emblem</title>
  <desc id="desc">A calm control panel emblem with connected MCP nodes around a central ellmos ControlCenter mark.</desc>
  <rect width="1200" height="630" rx="36" fill="#F4F1EA"/>
  <path d="M0 478C148 428 235 458 350 504C498 563 650 574 795 520C924 472 1012 362 1200 394V630H0V478Z" fill="#DCE9DF"/>
  <path d="M0 0H1200V196C1026 149 918 172 789 223C650 278 504 276 365 219C233 165 132 99 0 132V0Z" fill="#E9DED2"/>
  <circle cx="600" cy="315" r="148" fill="#FFFFFF" stroke="#1D6B5C" stroke-width="10"/>
  <circle cx="600" cy="315" r="84" fill="#1D6B5C"/>
  <path d="M556 296C556 273 575 254 600 254C625 254 644 273 644 296V334C644 357 625 376 600 376C575 376 556 357 556 334V296Z" fill="#F8F6F1"/>
  <path d="M582 312H618" stroke="#1D6B5C" stroke-width="12" stroke-linecap="round"/>
  <path d="M600 254V226M600 404V376M516 315H488M712 315H684" stroke="#1D6B5C" stroke-width="10" stroke-linecap="round"/>
  <path d="M600 167V105M600 525V463M242 315H304M896 315H958M346 187L399 222M801 408L854 443M346 443L399 408M801 222L854 187" stroke="#2D3632" stroke-width="7" stroke-linecap="round"/>
  <g fill="#FFFFFF" stroke="#2D3632" stroke-width="7">
    <circle cx="600" cy="94" r="34"/>
    <circle cx="600" cy="536" r="34"/>
    <circle cx="231" cy="315" r="34"/>
    <circle cx="969" cy="315" r="34"/>
    <circle cx="318" cy="169" r="30"/>
    <circle cx="882" cy="461" r="30"/>
    <circle cx="318" cy="461" r="30"/>
    <circle cx="882" cy="169" r="30"/>
  </g>
  <g fill="#B94D2F">
    <circle cx="600" cy="94" r="11"/>
    <circle cx="969" cy="315" r="11"/>
    <circle cx="318" cy="461" r="10"/>
  </g>
  <g fill="#1D6B5C">
    <circle cx="600" cy="536" r="11"/>
    <circle cx="231" cy="315" r="11"/>
    <circle cx="318" cy="169" r="10"/>
    <circle cx="882" cy="169" r="10"/>
    <circle cx="882" cy="461" r="10"/>
  </g>
  <text x="600" y="572" text-anchor="middle" fill="#20211F" font-family="Segoe UI, Arial, sans-serif" font-size="38" font-weight="700">ellmos ControlCenter MCP</text>
  <text x="600" y="608" text-anchor="middle" fill="#66685F" font-family="Segoe UI, Arial, sans-serif" font-size="20">profiles · policies · tool routing</text>
</svg>
