<svg width="900" height="900" viewBox="0 0 900 900" fill="none" xmlns="http://www.w3.org/2000/svg" role="img" aria-labelledby="title desc">
  <title id="title">ellmos ControlCenter MCP logo</title>
  <desc id="desc">Round seal logo for ellmos ControlCenter with control tower, aircraft, radar lines, and discovery profile recommend text.</desc>
  <defs>
    <path id="top-arc" d="M145 455a305 305 0 0 1 610 0"/>
    <path id="bottom-arc" d="M755 455a305 305 0 0 1-610 0"/>
    <radialGradient id="face" cx="50%" cy="38%" r="66%">
      <stop offset="0%" stop-color="#F6F8F8"/>
      <stop offset="72%" stop-color="#DCE4E7"/>
      <stop offset="100%" stop-color="#B8C5CB"/>
    </radialGradient>
    <linearGradient id="navy" x1="105" y1="104" x2="795" y2="802" gradientUnits="userSpaceOnUse">
      <stop stop-color="#10213B"/>
      <stop offset="1" stop-color="#263A55"/>
    </linearGradient>
    <filter id="soft-shadow" x="-20%" y="-20%" width="140%" height="140%">
      <feDropShadow dx="0" dy="12" stdDeviation="15" flood-color="#172237" flood-opacity="0.22"/>
    </filter>
  </defs>

  <rect width="900" height="900" fill="#F1F2F0"/>
  <circle cx="450" cy="450" r="398" fill="url(#navy)" filter="url(#soft-shadow)"/>
  <circle cx="450" cy="450" r="378" fill="#E9EEF0" stroke="#101D32" stroke-width="6"/>
  <circle cx="450" cy="450" r="320" fill="url(#face)" stroke="#536170" stroke-width="4"/>
  <path d="M115 450a335 335 0 0 0 670 0" fill="#1D2F49"/>
  <path d="M145 450a305 305 0 0 0 610 0" fill="#263B56"/>
  <circle cx="450" cy="450" r="320" stroke="#111D31" stroke-width="5"/>

  <g opacity="0.58" stroke="#71808A" stroke-width="4" stroke-linecap="round">
    <path d="M181 398C300 334 602 331 719 397"/>
    <path d="M205 319C335 389 569 389 694 319"/>
    <path d="M232 255C344 427 556 428 668 255"/>
    <path d="M450 138V531"/>
    <path d="M269 189L631 531"/>
    <path d="M631 189L269 531"/>
    <path d="M164 450H736"/>
  </g>

  <g fill="#F7FAFA" stroke="#10213B" stroke-width="7" stroke-linejoin="round">
    <path d="M367 330H533L517 431H383L367 330Z"/>
    <path d="M386 276H514L533 330H367L386 276Z"/>
    <path d="M405 219H495L514 276H386L405 219Z"/>
    <path d="M421 177H479L495 219H405L421 177Z"/>
    <path d="M346 431H554V475H346V431Z"/>
    <path d="M300 475H600L630 559H270L300 475Z"/>
    <path d="M248 559H652V606H248V559Z"/>
  </g>

  <g stroke="#10213B" stroke-width="5">
    <path d="M392 330V431"/>
    <path d="M424 330V431"/>
    <path d="M458 330V431"/>
    <path d="M492 330V431"/>
    <path d="M392 276L384 330"/>
    <path d="M426 276L423 330"/>
    <path d="M474 276L477 330"/>
    <path d="M508 276L516 330"/>
  </g>

  <g stroke="#10213B" stroke-width="7" stroke-linecap="round">
    <path d="M450 174L480 132"/>
    <circle cx="489" cy="120" r="28" fill="none"/>
    <path d="M467 138L510 102"/>
  </g>

  <g transform="translate(0 8)" fill="#E9EEF0" stroke="#10213B" stroke-width="7" stroke-linejoin="round">
    <path d="M192 591H506C543 591 576 609 596 638H260C226 638 199 619 192 591Z"/>
    <path d="M386 591L429 549H488L455 591H386Z"/>
    <path d="M596 638L663 673H563L515 638H596Z"/>
    <path d="M292 638H407L363 681H271L292 638Z"/>
    <circle cx="304" cy="690" r="23"/>
    <circle cx="536" cy="690" r="23"/>
    <path d="M419 619L445 606L471 619L445 632L419 619Z" fill="#10213B"/>
  </g>

  <g fill="#10213B">
    <circle cx="450" cy="741" r="40"/>
    <circle cx="404" cy="726" r="10"/>
    <circle cx="496" cy="726" r="10"/>
    <path d="M450 689L472 741H428L450 689Z"/>
    <path d="M450 793L428 744H472L450 793Z"/>
    <path d="M398 741L450 719V763L398 741Z"/>
    <path d="M502 741L450 763V719L502 741Z"/>
  </g>

  <text fill="#10213B" font-family="Segoe UI, Arial, sans-serif" font-size="48" font-weight="800" letter-spacing="2.5">
    <textPath href="#top-arc" startOffset="50%" text-anchor="middle">ELLMOS CONTROL CENTER</textPath>
  </text>
  <text fill="#E9EEF0" font-family="Segoe UI, Arial, sans-serif" font-size="26" font-weight="800" letter-spacing="2.2">
    <textPath href="#bottom-arc" startOffset="50%" text-anchor="middle">DISCOVERY . PROFILE . RECOMMEND</textPath>
  </text>

  <circle cx="450" cy="450" r="398" stroke="#0B1729" stroke-width="7"/>
  <circle cx="450" cy="450" r="372" stroke="#7B8893" stroke-width="5"/>
</svg>
